# xmcd
#
# Track frame offsets:
#	182
#	14870
#	25587
#	40175
#	57330
#	75045
#	91422
#	104247
#	117227
#	131830
#
# Disc length: 1977 seconds
#
# Revision: 0
# Processed by: cddbd v1.5.1PL0 Copyright (c) Steve Scherf et al.
# Submitted via: EasyCDDAExtractor 8.0.1.1
#
DISCID=7f07b70a
DTITLE=Julie Et André - Chanter L'amour
DYEAR=1900
DGENRE=Country
TTITLE0=Chanter L'amour
TTITLE1=Malgré Vos Cheveux Blancs
TTITLE2=Chanter Ensemble
TTITLE3=Ou es-tu
TTITLE4=Un Enfant
TTITLE5=Viens Danser
TTITLE6=Ouvre La Porte De Ton Coeur
TTITLE7=La Musique Country
TTITLE8=A Travers La Province
TTITLE9=Au Revoir
EXTD=
EXTT0=
EXTT1=
EXTT2=
EXTT3=
EXTT4=
EXTT5=
EXTT6=
EXTT7=
EXTT8=
EXTT9=
PLAYORDER=
